<svg width="106" height="41" viewBox="0 0 106 41" fill="none" xmlns="http://www.w3.org/2000/svg">
<path d="M52.728 34.36C50.952 34.36 49.38 34.036 48.012 33.388C46.644 32.74 45.552 31.804 44.736 30.58C43.944 29.332 43.512 27.844 43.44 26.116C43.416 25.732 43.404 25.252 43.404 24.676C43.404 24.076 43.416 23.584 43.44 23.2C43.512 21.448 43.944 19.96 44.736 18.736C45.528 17.488 46.608 16.54 47.976 15.892C49.368 15.244 50.952 14.92 52.728 14.92C54.384 14.92 55.8 15.16 56.976 15.64C58.152 16.096 59.112 16.672 59.856 17.368C60.6 18.064 61.152 18.784 61.512 19.528C61.896 20.248 62.1 20.884 62.124 21.436C62.148 21.676 62.064 21.892 61.872 22.084C61.68 22.252 61.464 22.336 61.224 22.336H56.652C56.388 22.336 56.184 22.276 56.04 22.156C55.896 22.036 55.764 21.856 55.644 21.616C55.356 20.872 54.984 20.344 54.528 20.032C54.096 19.72 53.532 19.564 52.836 19.564C51.876 19.564 51.132 19.876 50.604 20.5C50.1 21.124 49.824 22.084 49.776 23.38C49.752 24.34 49.752 25.192 49.776 25.936C49.824 27.256 50.1 28.216 50.604 28.816C51.132 29.416 51.876 29.716 52.836 29.716C53.58 29.716 54.168 29.56 54.6 29.248C55.032 28.936 55.38 28.408 55.644 27.664C55.764 27.424 55.896 27.244 56.04 27.124C56.184 27.004 56.388 26.944 56.652 26.944H61.224C61.464 26.944 61.68 27.04 61.872 27.232C62.064 27.4 62.148 27.604 62.124 27.844C62.1 28.252 61.98 28.732 61.764 29.284C61.548 29.812 61.212 30.376 60.756 30.976C60.3 31.576 59.7 32.14 58.956 32.668C58.236 33.172 57.36 33.58 56.328 33.892C55.296 34.204 54.096 34.36 52.728 34.36ZM68.2176 40.84C68.0016 40.84 67.8216 40.768 67.6776 40.624C67.5336 40.48 67.4616 40.3 67.4616 40.084C67.4616 40.036 67.4616 39.964 67.4616 39.868C67.4856 39.796 67.5216 39.712 67.5696 39.616L70.3776 32.848L63.4656 16.504C63.3936 16.336 63.3576 16.192 63.3576 16.072C63.4056 15.856 63.5016 15.676 63.6456 15.532C63.7896 15.364 63.9696 15.28 64.1856 15.28H68.2896C68.6016 15.28 68.8296 15.364 68.9736 15.532C69.1416 15.676 69.2496 15.844 69.2976 16.036L73.4376 26.512L77.6496 16.036C77.7456 15.844 77.8656 15.676 78.0096 15.532C78.1776 15.364 78.4176 15.28 78.7296 15.28H82.7616C82.9776 15.28 83.1576 15.364 83.3016 15.532C83.4696 15.676 83.5536 15.844 83.5536 16.036C83.5536 16.156 83.5176 16.312 83.4456 16.504L73.2576 40.084C73.1856 40.276 73.0656 40.444 72.8976 40.588C72.7296 40.756 72.4896 40.84 72.1776 40.84H68.2176ZM91.0486 34.36C89.7526 34.36 88.5886 34.12 87.5566 33.64C86.5486 33.136 85.7446 32.464 85.1446 31.624C84.5446 30.784 84.2446 29.836 84.2446 28.78C84.2446 27.076 84.9406 25.732 86.3326 24.748C87.7246 23.74 89.5726 23.056 91.8766 22.696L96.3766 22.012V21.508C96.3766 20.644 96.1966 19.984 95.8366 19.528C95.4766 19.072 94.8166 18.844 93.8566 18.844C93.1846 18.844 92.6326 18.976 92.2006 19.24C91.7926 19.504 91.4686 19.864 91.2286 20.32C91.0126 20.632 90.7126 20.788 90.3286 20.788H86.2966C86.0326 20.788 85.8286 20.716 85.6846 20.572C85.5406 20.404 85.4806 20.212 85.5046 19.996C85.5046 19.564 85.6606 19.072 85.9726 18.52C86.3086 17.944 86.8126 17.38 87.4846 16.828C88.1566 16.276 89.0206 15.82 90.0766 15.46C91.1326 15.1 92.4046 14.92 93.8926 14.92C95.4526 14.92 96.7846 15.1 97.8886 15.46C98.9926 15.82 99.8806 16.324 100.553 16.972C101.249 17.62 101.765 18.388 102.101 19.276C102.437 20.14 102.605 21.1 102.605 22.156V33.1C102.605 33.364 102.509 33.58 102.317 33.748C102.149 33.916 101.945 34 101.705 34H97.5286C97.2646 34 97.0486 33.916 96.8806 33.748C96.7126 33.58 96.6286 33.364 96.6286 33.1V31.84C96.3166 32.296 95.8966 32.716 95.3686 33.1C94.8406 33.484 94.2166 33.784 93.4966 34C92.8006 34.24 91.9846 34.36 91.0486 34.36ZM92.7406 30.256C93.4366 30.256 94.0606 30.112 94.6126 29.824C95.1886 29.512 95.6326 29.044 95.9446 28.42C96.2806 27.772 96.4486 26.968 96.4486 26.008V25.504L93.3886 26.044C92.2606 26.236 91.4326 26.536 90.9046 26.944C90.4006 27.328 90.1486 27.784 90.1486 28.312C90.1486 28.72 90.2686 29.068 90.5086 29.356C90.7486 29.644 91.0606 29.872 91.4446 30.04C91.8286 30.184 92.2606 30.256 92.7406 30.256Z" fill="#76A5AF"/>
<g clip-path="url(#clip0_61_20)">
<path d="M4.861 14.147C5.801 13.49 7.218 13.616 8.062 14.313L7.094 12.906C6.315 11.795 6.594 10.593 7.706 9.81296C8.818 9.03596 11.969 11.125 11.969 11.125C11.183 10.003 11.33 8.58096 12.452 7.79396C12.9914 7.41704 13.6584 7.26968 14.3064 7.38424C14.9545 7.49881 15.5305 7.86593 15.908 8.40496L26.328 23.125L25 36L13.917 31.958L4.25 17.625C4.0615 17.3566 3.92776 17.0536 3.85644 16.7335C3.78513 16.4134 3.77763 16.0823 3.83438 15.7593C3.89113 15.4362 4.01101 15.1276 4.18717 14.8509C4.36333 14.5742 4.59231 14.335 4.861 14.147V14.147Z" fill="#EF9645"/>
<path d="M2.695 22.336C2.695 22.336 1.563 20.686 3.214 19.555C4.863 18.424 5.994 20.073 5.994 20.073L11.245 27.731C11.426 27.429 11.624 27.131 11.845 26.837L4.557 16.21C4.557 16.21 3.426 14.561 5.076 13.43C6.725 12.299 7.856 13.948 7.856 13.948L14.711 23.945C14.966 23.737 15.227 23.528 15.496 23.323L7.549 11.732C7.549 11.732 6.418 10.083 8.068 8.95196C9.717 7.82096 10.848 9.46996 10.848 9.46996L18.795 21.059C19.087 20.88 19.376 20.725 19.666 20.561L12.238 9.72896C12.238 9.72896 11.107 8.07996 12.756 6.94896C14.405 5.81796 15.536 7.46696 15.536 7.46696L23.39 18.921L24.584 20.663C19.636 24.057 19.165 30.442 21.992 34.565C22.557 35.39 23.382 34.825 23.382 34.825C19.989 29.876 21.025 24.315 25.974 20.922L24.515 13.62C24.515 13.62 23.97 11.696 25.893 11.15C27.817 10.605 28.363 12.529 28.363 12.529L30.048 17.533C30.716 19.517 31.427 21.494 32.368 23.364C35.025 28.644 33.438 35.206 28.428 38.643C22.963 42.39 15.492 40.997 11.744 35.533L2.695 22.336Z" fill="#FFDC5D"/>
<path d="M12 37.042C8 37.042 3.958 33 3.958 29C3.958 28.447 3.553 28 3 28C2.447 28 1.958 28.447 1.958 29C1.958 35 6 39.042 12 39.042C12.553 39.042 13 38.553 13 38C13 37.447 12.553 37.042 12 37.042Z" fill="#5DADEC"/>
<path d="M7 39C4 39 2 37 2 34C2 33.7348 1.89464 33.4804 1.70711 33.2929C1.51957 33.1054 1.26522 33 1 33C0.734784 33 0.48043 33.1054 0.292893 33.2929C0.105357 33.4804 0 33.7348 0 34C0 38 3 41 7 41C7.26522 41 7.51957 40.8946 7.70711 40.7071C7.89464 40.5196 8 40.2652 8 40C8 39.7348 7.89464 39.4804 7.70711 39.2929C7.51957 39.1054 7.26522 39 7 39ZM24 7C23.7348 7 23.4804 7.10536 23.2929 7.29289C23.1054 7.48043 23 7.73478 23 8C23 8.26522 23.1054 8.51957 23.2929 8.70711C23.4804 8.89464 23.7348 9 24 9C28 9 32 12.589 32 17C32 17.2652 32.1054 17.5196 32.2929 17.7071C32.4804 17.8946 32.7348 18 33 18C33.2652 18 33.5196 17.8946 33.7071 17.7071C33.8946 17.5196 34 17.2652 34 17C34 11.486 30 7 24 7Z" fill="#5DADEC"/>
<path d="M29 5.04199C28.448 5.04199 28 5.44799 28 5.99999C28 6.55199 28.448 7.04199 29 7.04199C32 7.04199 33.958 9.26699 33.958 12C33.958 12.552 34.447 13 35 13C35.553 13 35.958 12.552 35.958 12C35.958 8.16299 33 5.04199 29 5.04199Z" fill="#5DADEC"/>
</g>
<defs>
<clipPath id="clip0_61_20">
<rect width="36" height="36" fill="white" transform="translate(0 5)"/>
</clipPath>
</defs>
</svg>
